# xmcd CD database file
#
# Track frame offsets:
#	150
#	13932
#	30465
#	47395
#	63480
#	78242
#	93537
#	110120
#	127015
#	141535
#	159255
#	176890
#	195505
#	210927
#	224920
#	241547
#	254662
#	271722
#	288885
#	305107
#
# Disc length: 4299 seconds
#
# Revision: 0
# Processed by: cddbd v1.5.1PL2 Copyright (c) Steve Scherf et al.
# Submitted via: CDex 1.51
#
DISCID=2710c914
DTITLE=Various Artist - JUMP Dance Classics
DYEAR=1997
DGENRE=Pop/Funk
TTITLE0=Kc and The Sunshine Band - That's The Way (I Like It)
TTITLE1=Kool and TheGang - Celebration
TTITLE2=Diana Ross - Love Hangover
TTITLE3=Teena Marie - I Need Your Lovin'
TTITLE4=Gloria Gaynor - I Will Survive
TTITLE5=Barry White - You're The First The Last, My Everything
TTITLE6=Gibson Brothers - Cuba
TTITLE7=Village People - Y.M.C.A.
TTITLE8=The Ritchie Family - The Best Disco In Town
TTITLE9=Lipps.Inc - Funcktown
TTITLE10=Donna Summer - I Feel Love (Rollo and Sister Bliss Monster Mix Radio Edit)
TTITLE11=Marvin Gaye - Got To Give It Up
TTITLE12=The Gap Band - Oops Upside Your Head (I Don't Believe You Want To Get Up And Dance)
TTITLE13=Alicia Bridges - I Love The Nightlife
TTITLE14=Imaginatiom - Flashback
TTITLE15=Yvonne Elliman - If I Can't Have You
TTITLE16=Abba - Dancing Queen
TTITLE17=Donna Summer - Hot Stuff
TTITLE18=Thelma Houston - Don't Leave Me This Way
TTITLE19=Amii Stewart - Knock On Wood
EXTD=YEAR: 1997
EXTT0=
EXTT1=
EXTT2=
EXTT3=
EXTT4=
EXTT5=
EXTT6=
EXTT7=
EXTT8=
EXTT9=
EXTT10=
EXTT11=
EXTT12=
EXTT13=
EXTT14=
EXTT15=
EXTT16=
EXTT17=
EXTT18=
EXTT19=
PLAYORDER=
